<svg xmlns="http://www.w3.org/2000/svg" viewBox="0 0 24 24" fill="#666666">
  <path d="M12 .5C5.42.5 0 5.92 0 12.5c0 5.28 3.438 9.75 8.207 11.325.6.11.793-.26.793-.577 0-.285-.01-1.04-.016-2.04-3.338.726-4.042-1.61-4.042-1.61-.546-1.385-1.333-1.755-1.333-1.755-1.09-.745.083-.73.083-.73 1.205.085 1.84 1.237 1.84 1.237 1.07 1.834 2.807 1.304 3.492.997.108-.775.418-1.305.762-1.605-2.665-.303-5.467-1.333-5.467-5.93 0-1.31.467-2.38 1.235-3.22-.123-.303-.535-1.523.117-3.176 0 0 1.007-.322 3.3 1.23a11.5 11.5 0 0 1 3.003-.404c1.018.005 2.043.138 3.003.404 2.29-1.55 3.295-1.23 3.295-1.23.655 1.653.243 2.873.12 3.176.77.84 1.235 1.91 1.235 3.22 0 4.61-2.807 5.624-5.48 5.92.43.372.815 1.102.815 2.222 0 1.606-.015 2.9-.015 3.293 0 .32.19.694.8.576C20.565 22.246 24 17.78 24 12.5 24 5.92 18.58.5 12 .5z"/>
</svg>
