<svg xmlns="http://www.w3.org/2000/svg" viewBox="0 0 24 24" fill="none" stroke="#666666" stroke-width="2" stroke-linecap="round" stroke-linejoin="round">
  <path d="M19.4 15a1.65 1.65 0 0 0 .33 1.82l.06.06a2 2 0 0 1-2.83 2.83l-.06-.06a1.65 1.65 0 0 0-1.82-.33 1.65 1.65 0 0 0-1 1.51V21a2 2 0 0 1-4 0v-.09a1.65 1.65 0 0 0-1-1.51 1.65 1.65 0 0 0-1.82.33l-.06.06a2 2 0 0 1-2.83-2.83l.06-.06a1.65 1.65 0 0 0 .33-1.82 1.65 1.65 0 0 0-1.51-1H3a2 2 0 0 1 0-4h.09a1.65 1.65 0 0 0 1.51-1 1.65 1.65 0 0 0-.33-1.82L4.3 4.3A2 2 0 0 1 7.12 1.47l.06.06a1.65 1.65 0 0 0 1.82.33H9.5A1.65 1.65 0 0 0 11 2.5V2a2 2 0 0 1 4 0v.09c.26.11.5.26.73.44l.06-.06A2 2 0 0 1 19.7 4.3l-.06.06a1.65 1.65 0 0 0-.33 1.82V7.5c0 .4.15.78.44 1.07.29.29.67.44 1.07.44H21a2 2 0 0 1 0 4h-.09c-.4 0-.78.15-1.07.44-.29.29-.44.67-.44 1.07v1.09c0 .4.15.78.44 1.07z"/>
</svg>
