<svg xmlns="http://www.w3.org/2000/svg" viewBox="0 0 24 24" fill="#666666">
  <path d="M23.954 4.569c-.885.392-1.83.656-2.825.775 1.014-.608 1.794-1.57 2.163-2.723-.95.555-2.005.959-3.127 1.184-.897-.959-2.173-1.555-3.591-1.555-2.717 0-4.92 2.203-4.92 4.917 0 .39.045.765.127 1.124-4.09-.205-7.719-2.165-10.148-5.144-.423.723-.666 1.561-.666 2.475 0 1.708.87 3.215 2.19 4.099-.807-.026-1.566-.248-2.229-.616v.061c0 2.385 1.693 4.374 3.946 4.827-.413.111-.849.171-1.296.171-.314 0-.615-.03-.916-.086.631 1.953 2.445 3.377 4.6 3.418-1.68 1.315-3.809 2.099-6.102 2.099-.39 0-.779-.023-1.17-.067 2.189 1.404 4.768 2.223 7.548 2.223 9.057 0 14.01-7.5 14.01-14.01 0-.21 0-.423-.016-.634.962-.695 1.8-1.562 2.46-2.549z"/>
</svg>
